<svg width="790" height="1080" viewBox="0 0 790 1080" fill="none" xmlns="http://www.w3.org/2000/svg">
<path d="M790 0H0V1080H790V0Z" fill="url(#paint0_linear_1_5418)"/>
<mask id="mask0_1_5418" style="mask-type:luminance" maskUnits="userSpaceOnUse" x="0" y="0" width="790" height="1080">
<path d="M790 0H0V1080H790V0Z" fill="white"/>
</mask>
<g mask="url(#mask0_1_5418)">
<path style="mix-blend-mode:color-burn" opacity="0.3" d="M-138.595 961.009C-102.177 921.48 -42.338 896.354 13.5372 908.313C51.9884 916.564 86.2445 936.113 121.401 952.73C156.558 969.318 195.241 983.462 234.49 979.437C320.375 970.612 374.448 880.715 459.535 866.628C550.053 851.65 644.276 927.891 728.694 894.226C789.665 869.934 819.906 795.331 885.381 785.068V1172.25H-138.595V960.981V961.009Z" fill="url(#paint1_linear_1_5418)"/>
<path style="mix-blend-mode:color-burn" opacity="0.45" d="M-58.8096 989.902C-11.6335 998.555 14.5154 989.643 53.6873 966.012C80.0163 950.142 102.202 927.517 133.575 920.646C171.898 912.281 211.481 930.335 241.002 952.442C270.548 974.55 295.59 1001.66 330.284 1017.64C402.322 1050.85 494.564 1025.95 559.498 983.663C587.578 965.379 612.98 943.933 643.556 928.725C674.131 913.517 712.171 905.036 745.475 915.5C772.859 924.096 793.011 944.048 819.108 955.087V1235.85H-58.8096V989.873V989.902Z" fill="url(#paint2_linear_1_5418)"/>
<path style="mix-blend-mode:overlay" opacity="0.6" d="M819.159 139.488C771.983 122.297 745.834 139.977 706.662 186.924C680.333 218.432 658.148 263.338 626.774 276.936C588.452 293.552 548.868 257.703 519.348 213.832C489.802 169.962 464.759 116.173 430.066 84.4348C358.028 18.5429 265.786 67.9618 200.851 151.879C172.772 188.189 147.37 230.708 116.794 260.923C86.2183 291.109 48.1788 307.927 14.875 287.17C-12.5092 270.093 -32.6614 230.535 -58.7588 208.571V-121.377H819.159V139.517V139.488Z" fill="url(#paint3_linear_1_5418)"/>
<path style="mix-blend-mode:overlay" opacity="0.6" d="M-8.36523 99.1539C45.1164 85.8146 74.7399 99.5277 119.188 135.923C149.017 160.36 174.188 195.146 209.757 205.696C253.201 218.576 298.061 190.776 331.545 156.795C365.029 122.785 393.417 81.0998 432.769 56.491C514.458 5.4334 619.028 43.7266 692.636 108.756C724.473 136.901 753.273 169.847 787.94 193.277C822.608 216.678 865.744 229.702 903.5 213.602C934.565 200.378 957.393 169.703 986.991 152.684V-25.6726H-8.36523V99.1539Z" fill="url(#paint4_linear_1_5418)"/>
<g style="mix-blend-mode:overlay" opacity="0.4">
<path d="M127.835 210.613C127.835 214.206 125.236 217.11 122.019 217.11C118.802 217.11 116.202 214.206 116.202 210.613C116.202 207.019 118.802 204.115 122.019 204.115C125.236 204.115 127.835 207.019 127.835 210.613Z" fill="white"/>
<path d="M555.148 838.512C555.148 842.105 552.548 845.009 549.331 845.009C546.114 845.009 543.515 842.105 543.515 838.512C543.515 834.918 546.114 832.015 549.331 832.015C552.548 832.015 555.148 834.918 555.148 838.512Z" fill="white"/>
<path d="M164.561 1012.44C164.561 1014.28 163.223 1015.75 161.601 1015.75C159.98 1015.75 158.642 1014.25 158.642 1012.44C158.642 1010.63 159.98 1009.13 161.601 1009.13C163.223 1009.13 164.561 1010.63 164.561 1012.44Z" fill="white"/>
<path d="M659.9 837.62C663.41 837.62 666.257 834.441 666.257 830.519C666.257 826.598 663.41 823.418 659.9 823.418C656.389 823.418 653.542 826.598 653.542 830.519C653.542 834.441 656.389 837.62 659.9 837.62Z" fill="white"/>
<path d="M197.609 959.629C197.609 964.143 194.34 967.794 190.3 967.794C186.259 967.794 182.99 964.143 182.99 959.629C182.99 955.116 186.259 951.465 190.3 951.465C194.34 951.465 197.609 955.116 197.609 959.629Z" fill="white"/>
<path d="M135.042 166.254C135.042 168.41 133.472 170.163 131.542 170.163C129.611 170.163 128.042 168.41 128.042 166.254C128.042 164.097 129.611 162.344 131.542 162.344C133.472 162.344 135.042 164.097 135.042 166.254Z" fill="white"/>
<path d="M645.822 888.793C645.822 890.949 644.252 892.703 642.322 892.703C640.391 892.703 638.821 890.949 638.821 888.793C638.821 886.637 640.391 884.883 642.322 884.883C644.252 884.883 645.822 886.637 645.822 888.793Z" fill="white"/>
<path d="M53.8928 192.587C55.0442 192.587 55.9775 191.545 55.9775 190.259C55.9775 188.972 55.0442 187.93 53.8928 187.93C52.7415 187.93 51.8081 188.972 51.8081 190.259C51.8081 191.545 52.7415 192.587 53.8928 192.587Z" fill="white"/>
<path d="M720.202 621.948C720.202 623.242 719.276 624.277 718.117 624.277C716.959 624.277 716.033 623.242 716.033 621.948C716.033 620.655 716.959 619.62 718.117 619.62C719.276 619.62 720.202 620.655 720.202 621.948Z" fill="white"/>
<path d="M263.392 894.543C263.392 895.808 262.491 896.814 261.359 896.814C260.226 896.814 259.326 895.808 259.326 894.543C259.326 893.278 260.226 892.271 261.359 892.271C262.491 892.271 263.392 893.278 263.392 894.543Z" fill="white"/>
<path d="M73.0928 853.058C73.0928 855.703 71.1625 857.859 68.7947 857.859C66.4269 857.859 64.4966 855.703 64.4966 853.058C64.4966 850.414 66.4269 848.257 68.7947 848.257C71.1625 848.257 73.0928 850.414 73.0928 853.058Z" fill="white"/>
<path d="M665.279 689.105C666.43 689.105 667.363 688.062 667.363 686.776C667.363 685.49 666.43 684.448 665.279 684.448C664.127 684.448 663.194 685.49 663.194 686.776C663.194 688.062 664.127 689.105 665.279 689.105Z" fill="white"/>
</g>
<g style="mix-blend-mode:overlay" opacity="0.15">
<path d="M786.447 1196.26H789.999V-102.604H786.447V-28.0013H711.115V-102.604H707.563V-28.0013H632.231V-102.604H628.679V-28.0013H553.347V-102.604H549.795V-28.0013H474.462V-102.604H470.911V-28.0013H395.578V-102.604H392.026V-28.0013H316.694V-102.604H313.142V-28.0013H237.81V-102.604H234.258V-28.0013H158.926V-102.604H155.374V-28.0013H80.0414V-102.604H76.4897V-28.0013H1.15719V-102.604H-2.39453V1196.26H1.15719V1121.57H76.4897V1196.26H80.0414V1121.57H155.374V1196.26H158.926V1121.57H234.258V1196.26H237.81V1121.57H313.142V1196.26H316.694V1121.57H392.026V1196.26H395.578V1121.57H470.911V1196.26H474.462V1121.57H549.795V1196.26H553.347V1121.57H628.679V1196.26H632.231V1121.57H707.563V1196.26H711.115V1121.57H786.447V1196.26ZM76.4125 1117.6H1.07998V1033.46H76.4125V1117.6ZM155.297 1117.6H79.9642V1033.46H155.297V1117.6ZM234.181 1117.6H158.848V1033.46H234.181V1117.6ZM313.065 1117.6H237.733V1033.46H313.065V1117.6ZM391.949 1117.6H316.617V1033.46H391.949V1117.6ZM470.833 1117.6H395.501V1033.46H470.833V1117.6ZM549.718 1117.6H474.385V1033.46H549.718V1117.6ZM628.602 1117.6H553.269V1033.46H628.602V1117.6ZM707.486 1117.6H632.154V1033.46H707.486V1117.6ZM786.37 1117.6H711.038V1033.46H786.37V1117.6ZM76.3352 1029.49H1.00277V945.341H76.3352V1029.49ZM155.219 1029.49H79.887V945.341H155.219V1029.49ZM234.104 1029.49H158.771V945.341H234.104V1029.49ZM312.988 1029.49H237.655V945.341H312.988V1029.49ZM391.872 1029.49H316.54V945.341H391.872V1029.49ZM470.756 1029.49H395.424V945.341H470.756V1029.49ZM549.64 1029.49H474.308V945.341H549.64V1029.49ZM628.525 1029.49H553.192V945.341H628.525V1029.49ZM707.409 1029.49H632.076V945.341H707.409V1029.49ZM786.293 1029.49H710.96V945.341H786.293V1029.49ZM76.258 941.374H0.925556V857.227H76.258V941.374ZM155.142 941.374H79.8097V857.227H155.142V941.374ZM234.026 941.374H158.694V857.227H234.026V941.374ZM312.911 941.374H237.578V857.227H312.911V941.374ZM391.795 941.374H316.462V857.227H391.795V941.374ZM470.679 941.374H395.347V857.227H470.679V941.374ZM549.563 941.374H474.231V857.227H549.563V941.374ZM628.447 941.374H553.115V857.227H628.447V941.374ZM707.332 941.374H631.999V857.227H707.332V941.374ZM786.216 941.374H710.883V857.227H786.216V941.374ZM76.1808 853.259H0.848348V769.112H76.1808V853.259ZM155.065 853.259H79.7325V769.112H155.065V853.259ZM233.949 853.259H158.617V769.112H233.949V853.259ZM312.833 853.259H237.501V769.112H312.833V853.259ZM391.718 853.259H316.385V769.112H391.718V853.259ZM470.602 853.259H395.269V769.112H470.602V853.259ZM549.486 853.259H474.153V769.112H549.486V853.259ZM628.37 853.259H553.038V769.112H628.37V853.259ZM707.254 853.259H631.922V769.112H707.254V853.259ZM786.139 853.259H710.806V769.112H786.139V853.259ZM76.1036 765.145H0.77114V680.998H76.1036V765.145ZM154.988 765.145H79.6553V680.998H154.988V765.145ZM233.872 765.145H158.54V680.998H233.872V765.145ZM312.756 765.145H237.424V680.998H312.756V765.145ZM391.64 765.145H316.308V680.998H391.64V765.145ZM470.525 765.145H395.192V680.998H470.525V765.145ZM549.409 765.145H474.076V680.998H549.409V765.145ZM628.293 765.145H552.961V680.998H628.293V765.145ZM707.177 765.145H631.845V680.998H707.177V765.145ZM786.061 765.145H710.729V680.998H786.061V765.145ZM76.0264 677.03H0.693922V592.883H76.0264V677.03ZM154.911 677.03H79.5781V592.883H154.911V677.03ZM233.795 677.03H158.462V592.883H233.795V677.03ZM312.679 677.03H237.347V592.883H312.679V677.03ZM391.563 677.03H316.231V592.883H391.563V677.03ZM470.447 677.03H395.115V592.883H470.447V677.03ZM549.332 677.03H473.999V592.883H549.332V677.03ZM628.216 677.03H552.883V592.883H628.216V677.03ZM707.1 677.03H631.767V592.883H707.1V677.03ZM785.984 677.03H710.652V592.883H785.984V677.03ZM75.9492 588.916H0.616714V504.768H75.9492V588.916ZM154.833 588.916H79.5009V504.768H154.833V588.916ZM233.718 588.916H158.385V504.768H233.718V588.916ZM312.602 588.916H237.269V504.768H312.602V588.916ZM391.486 588.916H316.153V504.768H391.486V588.916ZM470.37 588.916H395.038V504.768H470.37V588.916ZM549.254 588.916H473.922V504.768H549.254V588.916ZM628.138 588.916H552.806V504.768H628.138V588.916ZM707.023 588.916H631.69V504.768H707.023V588.916ZM785.907 588.916H710.574V504.768H785.907V588.916ZM75.872 500.801H0.539505V416.654H75.872V500.801ZM154.756 500.801H79.4237V416.654H154.756V500.801ZM233.64 500.801H158.308V416.654H233.64V500.801ZM312.525 500.801H237.192V416.654H312.525V500.801ZM391.409 500.801H316.076V416.654H391.409V500.801ZM470.293 500.801H394.96V416.654H470.293V500.801ZM549.177 500.801H473.845V416.654H549.177V500.801ZM628.061 500.801H552.729V416.654H628.061V500.801ZM706.945 500.801H631.613V416.654H706.945V500.801ZM785.83 500.801H710.497V416.654H785.83V500.801ZM75.7948 412.687H0.462288V328.539H75.7948V412.687ZM154.679 412.687H79.3465V328.539H154.679V412.687ZM233.563 412.687H158.231V328.539H233.563V412.687ZM312.447 412.687H237.115V328.539H312.447V412.687ZM391.332 412.687H315.999V328.539H391.332V412.687ZM470.216 412.687H394.883V328.539H470.216V412.687ZM549.1 412.687H473.767V328.539H549.1V412.687ZM627.984 412.687H552.652V328.539H627.984V412.687ZM706.868 412.687H631.536V328.539H706.868V412.687ZM785.752 412.687H710.42V328.539H785.752V412.687ZM75.7175 324.572H0.385079V240.425H75.7175V324.572ZM154.602 324.572H79.2693V240.425H154.602V324.572ZM233.486 324.572H158.153V240.425H233.486V324.572ZM312.37 324.572H237.038V240.425H312.37V324.572ZM391.254 324.572H315.922V240.425H391.254V324.572ZM470.138 324.572H394.806V240.425H470.138V324.572ZM549.023 324.572H473.69V240.425H549.023V324.572ZM627.907 324.572H552.574V240.425H627.907V324.572ZM706.791 324.572H631.459V240.425H706.791V324.572ZM785.675 324.572H710.343V240.425H785.675V324.572ZM75.6403 236.457H0.307871V152.31H75.6403V236.457ZM154.525 236.457H79.1921V152.31H154.525V236.457ZM233.409 236.457H158.076V152.31H233.409V236.457ZM312.293 236.457H236.96V152.31H312.293V236.457ZM391.177 236.457H315.845V152.31H391.177V236.457ZM470.061 236.457H394.729V152.31H470.061V236.457ZM548.945 236.457H473.613V152.31H548.945V236.457ZM627.83 236.457H552.497V152.31H627.83V236.457ZM706.714 236.457H631.381V152.31H706.714V236.457ZM785.598 236.457H710.266V152.31H785.598V236.457ZM75.5631 148.343H0.230653V64.1956H75.5631V148.343ZM154.447 148.343H79.1148V64.1956H154.447V148.343ZM233.331 148.343H157.999V64.1956H233.331V148.343ZM312.216 148.343H236.883V64.1956H312.216V148.343ZM391.1 148.343H315.767V64.1956H391.1V148.343ZM469.984 148.343H394.652V64.1956H469.984V148.343ZM548.868 148.343H473.536V64.1956H548.868V148.343ZM627.752 148.343H552.42V64.1956H627.752V148.343ZM706.637 148.343H631.304V64.1956H706.637V148.343ZM785.521 148.343H710.188V64.1956H785.521V148.343ZM76.4125 60.1133H1.07998V-24.034H76.4125V60.1133ZM155.297 60.1133H79.9642V-24.034H155.297V60.1133ZM234.181 60.1133H158.848V-24.034H234.181V60.1133ZM313.065 60.1133H237.733V-24.034H313.065V60.1133ZM391.949 60.1133H316.617V-24.034H391.949V60.1133ZM470.833 60.1133H395.501V-24.034H470.833V60.1133ZM549.718 60.1133H474.385V-24.034H549.718V60.1133ZM628.602 60.1133H553.269V-24.034H628.602V60.1133ZM707.486 60.1133H632.154V-24.034H707.486V60.1133ZM786.37 60.1133H711.038V-24.034H786.37V60.1133Z" fill="white"/>
</g>
<g style="mix-blend-mode:overlay" opacity="0.6">
<path d="M-113.013 1125.22L216.165 757.527" stroke="white" stroke-width="0.49" stroke-miterlimit="10"/>
<path d="M221.261 763.823C224.221 760.517 224.221 755.141 221.261 751.835C218.302 748.528 213.489 748.528 210.529 751.835C207.569 755.141 207.569 760.517 210.529 763.823C213.489 767.129 218.302 767.129 221.261 763.823Z" fill="white"/>
</g>
<g style="mix-blend-mode:overlay" opacity="0.6">
<path d="M656.242 370.11L923.728 71.3254" stroke="white" stroke-width="0.49" stroke-miterlimit="10"/>
<path d="M661.88 375.802C658.92 379.108 654.107 379.108 651.148 375.802C648.188 372.496 648.188 367.12 651.148 363.814C654.107 360.508 658.92 360.508 661.88 363.814C664.84 367.12 664.84 372.496 661.88 375.802Z" fill="white"/>
</g>
<g style="mix-blend-mode:overlay" opacity="0.6">
<path d="M576.639 1117.2L844.124 818.417" stroke="white" stroke-width="0.49" stroke-miterlimit="10"/>
</g>
<g style="mix-blend-mode:overlay" opacity="0.6">
<path d="M621.937 1158.51L889.422 859.728" stroke="white" stroke-width="0.49" stroke-miterlimit="10"/>
</g>
<g style="mix-blend-mode:overlay" opacity="0.6">
<path d="M200.491 343.69L611.744 -115.685" stroke="white" stroke-width="0.49" stroke-miterlimit="10"/>
<path d="M206.128 349.382C203.168 352.688 198.355 352.688 195.396 349.382C192.436 346.076 192.436 340.7 195.396 337.394C198.355 334.088 203.168 334.088 206.128 337.394C209.088 340.7 209.088 346.076 206.128 349.382Z" fill="white"/>
</g>
<g style="mix-blend-mode:overlay" opacity="0.6">
<path d="M385.36 195.031L796.613 -264.372" stroke="white" stroke-width="0.49" stroke-miterlimit="10"/>
<path d="M390.997 200.723C388.037 204.029 383.224 204.029 380.264 200.723C377.304 197.417 377.304 192.041 380.264 188.735C383.224 185.429 388.037 185.429 390.997 188.735C393.956 192.041 393.956 197.417 390.997 200.723Z" fill="white"/>
</g>
<g style="mix-blend-mode:overlay" opacity="0.6">
<path d="M-56.4688 1162.77L182.166 896.21" stroke="white" stroke-width="0.49" stroke-miterlimit="10"/>
<path d="M181.882 905.007C186.076 905.007 189.475 901.21 189.475 896.526C189.475 891.842 186.076 888.045 181.882 888.045C177.689 888.045 174.29 891.842 174.29 896.526C174.29 901.21 177.689 905.007 181.882 905.007Z" fill="white"/>
</g>
<g style="mix-blend-mode:overlay" opacity="0.6">
<path d="M608.734 890.518C608.734 901.471 600.781 910.326 591.001 910.326C581.221 910.326 573.268 901.442 573.268 890.518C573.268 879.593 581.221 870.71 591.001 870.71C600.781 870.71 608.734 879.593 608.734 890.518Z" fill="white"/>
</g>
<g style="mix-blend-mode:overlay" opacity="0.6">
<path d="M590.975 929.501C610.25 929.501 625.875 912.048 625.875 890.518C625.875 868.988 610.25 851.535 590.975 851.535C571.701 851.535 556.076 868.988 556.076 890.518C556.076 912.048 571.701 929.501 590.975 929.501Z" stroke="white" stroke-width="0.49" stroke-miterlimit="10"/>
</g>
<g style="mix-blend-mode:overlay" opacity="0.6">
<path d="M79.1406 313.993C88.9342 313.993 96.8734 305.124 96.8734 294.185C96.8734 283.245 88.9342 274.377 79.1406 274.377C69.347 274.377 61.4077 283.245 61.4077 294.185C61.4077 305.124 69.347 313.993 79.1406 313.993Z" fill="white"/>
</g>
<g style="mix-blend-mode:overlay" opacity="0.6">
<path d="M79.1407 333.168C98.4152 333.168 114.04 315.715 114.04 294.185C114.04 272.655 98.4152 255.202 79.1407 255.202C59.8662 255.202 44.2412 272.655 44.2412 294.185C44.2412 315.715 59.8662 333.168 79.1407 333.168Z" stroke="white" stroke-width="0.49" stroke-miterlimit="10"/>
</g>
<g style="mix-blend-mode:overlay" opacity="0.6">
<path d="M640.622 88.8908C628.345 96.2792 613.057 91.1332 606.443 77.4488C599.828 63.7645 604.435 46.659 616.686 39.2706C628.963 31.8822 644.251 37.0282 650.865 50.7126C657.479 64.4257 652.873 81.5024 640.622 88.8908Z" fill="white"/>
</g>
<g style="mix-blend-mode:overlay" opacity="0.6">
<path d="M666.314 70.7396C669.605 47.4983 655.407 25.6767 634.6 21.9998C613.793 18.3229 594.258 34.183 590.966 57.4243C587.674 80.6656 601.873 102.487 622.68 106.164C643.486 109.841 663.022 93.9809 666.314 70.7396Z" stroke="white" stroke-width="0.49" stroke-miterlimit="10"/>
</g>
</g>
<defs>
<linearGradient id="paint0_linear_1_5418" x1="394.987" y1="1080" x2="394.987" y2="0" gradientUnits="userSpaceOnUse">
<stop stop-color="#7851A9"/>
<stop offset="0.28" stop-color="#7851A9"/>
<stop offset="0.8" stop-color="#7851A9"/>
<stop offset="1" stop-color="#7851A9"/>
</linearGradient>
<linearGradient id="paint1_linear_1_5418" x1="362.223" y1="836.183" x2="399.724" y2="1219.71" gradientUnits="userSpaceOnUse">
<stop stop-color="#2390FF"/>
<stop offset="0.05" stop-color="#2390FF" stop-opacity="0.93"/>
<stop offset="0.3" stop-color="#2390FF" stop-opacity="0.6"/>
<stop offset="0.52" stop-color="#2390FF" stop-opacity="0.35"/>
<stop offset="0.7" stop-color="#2390FF" stop-opacity="0.16"/>
<stop offset="0.84" stop-color="#2390FF" stop-opacity="0.04"/>
<stop offset="0.91" stop-color="#2390FF" stop-opacity="0"/>
</linearGradient>
<linearGradient id="paint2_linear_1_5418" x1="380.162" y1="1235.88" x2="380.162" y2="910.872" gradientUnits="userSpaceOnUse">
<stop offset="0.09" stop-color="#2390FF" stop-opacity="0"/>
<stop offset="0.16" stop-color="#2390FF" stop-opacity="0.04"/>
<stop offset="0.3" stop-color="#2390FF" stop-opacity="0.16"/>
<stop offset="0.48" stop-color="#2390FF" stop-opacity="0.35"/>
<stop offset="0.7" stop-color="#2390FF" stop-opacity="0.6"/>
<stop offset="0.95" stop-color="#2390FF" stop-opacity="0.93"/>
<stop offset="1" stop-color="#2390FF"/>
</linearGradient>
<linearGradient id="paint3_linear_1_5418" x1="380.187" y1="-121.377" x2="380.187" y2="296.341" gradientUnits="userSpaceOnUse">
<stop offset="0.04" stop-color="white" stop-opacity="0"/>
<stop offset="0.16" stop-color="white" stop-opacity="0.02"/>
<stop offset="0.28" stop-color="white" stop-opacity="0.06"/>
<stop offset="0.4" stop-color="white" stop-opacity="0.14"/>
<stop offset="0.52" stop-color="white" stop-opacity="0.24"/>
<stop offset="0.63" stop-color="white" stop-opacity="0.38"/>
<stop offset="0.75" stop-color="white" stop-opacity="0.55"/>
<stop offset="0.86" stop-color="white" stop-opacity="0.75"/>
<stop offset="0.98" stop-color="white" stop-opacity="0.98"/>
<stop offset="0.99" stop-color="white"/>
</linearGradient>
<linearGradient id="paint4_linear_1_5418" x1="489.313" y1="-25.6726" x2="489.313" y2="220.732" gradientUnits="userSpaceOnUse">
<stop stop-color="white" stop-opacity="0"/>
<stop offset="0.13" stop-color="white" stop-opacity="0.02"/>
<stop offset="0.25" stop-color="white" stop-opacity="0.06"/>
<stop offset="0.38" stop-color="white" stop-opacity="0.14"/>
<stop offset="0.5" stop-color="white" stop-opacity="0.24"/>
<stop offset="0.62" stop-color="white" stop-opacity="0.38"/>
<stop offset="0.74" stop-color="white" stop-opacity="0.55"/>
<stop offset="0.86" stop-color="white" stop-opacity="0.75"/>
<stop offset="0.98" stop-color="white" stop-opacity="0.98"/>
<stop offset="0.99" stop-color="white"/>
</linearGradient>
</defs>
</svg>
