<svg width="80" height="80" viewBox="0 0 40 40" fill="none" xmlns="http://www.w3.org/2000/svg">
<path d="M10.6674 0.770011C10.0264 1.05974 9.83328 1.49873 9.83328 2.63131V3.4566H6.77794C3.41531 3.4566 3.13436 3.49172 2.18615 3.99217C1.57157 4.3258 0.807734 5.09841 0.491664 5.72177C0.0526783 6.59096 0 6.98605 0 9.53217V11.8851H19.6666H39.3331V9.53217C39.3331 6.98605 39.2805 6.59096 38.8415 5.72177C38.5254 5.09841 37.7616 4.3258 37.147 3.99217C36.1988 3.49172 35.9178 3.4566 32.564 3.4566H29.5174L29.4823 2.49961C29.4559 1.46361 29.3769 1.26167 28.8501 0.875367C28.5077 0.620755 27.6824 0.620755 27.34 0.875367C26.8133 1.26167 26.7342 1.46361 26.7079 2.49961L26.6728 3.4566H19.6666H12.6604L12.6252 2.49961C12.5989 1.46361 12.5199 1.26167 12.0107 0.884147C11.7121 0.664654 11.0185 0.603196 10.6674 0.770011Z" fill="#C0C0C0"/>
<path d="M0 25.4762C0 34.8705 0.0175594 36.3191 0.131696 36.7756C0.526783 38.2858 1.70327 39.4535 3.22216 39.8485C3.97721 40.0505 35.3559 40.0505 36.111 39.8485C37.6299 39.4535 38.8063 38.2858 39.2014 36.7756C39.3156 36.3191 39.3331 34.8705 39.3331 25.4762V14.6947H19.6666H0V25.4762ZM27.3576 20.4542C27.5244 20.5332 27.7439 20.7175 27.8493 20.8668C28.0775 21.1917 28.1566 21.8853 27.9985 22.254C27.9195 22.4472 26.4182 23.7992 23.0116 26.7141C17.2697 31.6307 17.5068 31.4464 17.1468 31.5166C16.4268 31.6571 16.3654 31.6132 13.8544 29.111C11.361 26.6263 11.1502 26.3629 11.2732 25.7395C11.4224 24.9582 12.116 24.4577 12.8974 24.5718C13.2837 24.6333 13.3891 24.7211 15.1187 26.4331L16.9361 28.2418L21.4401 24.3787C23.9159 22.254 26.0231 20.4717 26.1197 20.419C26.3743 20.2698 27.0152 20.2961 27.3576 20.4542Z" fill="#C0C0C0"/>
</svg>
