<svg width="56" height="56" viewBox="0 0 56 56" fill="none" xmlns="http://www.w3.org/2000/svg">
<path opacity="0.3" d="M55.1093 27.5584C55.1093 42.7824 42.7681 55.1277 27.5492 55.1277C12.3303 55.1277 0 42.7824 0 27.5584C0 12.3345 12.3411 0 27.5492 0C42.7574 0 55.1093 12.3452 55.1093 27.5584Z" fill="#6D6E70"/>
<mask id="mask0_1_4883" style="mask-type:luminance" maskUnits="userSpaceOnUse" x="0" y="0" width="56" height="56">
<path d="M55.1093 27.5584C55.1093 42.7824 42.7681 55.1277 27.5492 55.1277C12.3303 55.1277 0 42.7824 0 27.5584C0 12.3345 12.3411 0 27.5492 0C42.7574 0 55.1093 12.3452 55.1093 27.5584Z" fill="white"/>
</mask>
<g mask="url(#mask0_1_4883)">
<path fill-rule="evenodd" clip-rule="evenodd" d="M58.3537 55.6021C57.9657 54.5886 57.4268 53.6505 56.7585 52.7988C55.7023 51.451 54.3011 50.4915 52.7706 49.7691C52.3287 49.5534 51.8868 49.3054 51.4018 49.1868C49.8712 48.8418 48.3515 48.4321 46.8425 47.9793C46.3036 48.0116 45.8509 47.8176 45.4414 47.4833C44.3204 47.0305 43.1564 46.6962 42.1109 46.0709C41.7444 46.017 41.3995 45.9199 41.1408 45.6181C40.9468 45.5641 40.7959 45.4455 40.6019 45.3916C40.063 45.2623 39.6103 44.9819 39.2546 44.5399C39.0499 44.3997 38.8235 44.2811 38.6295 44.1194C38.3816 43.99 38.2307 43.8175 38.1553 43.5156C38.069 43.1167 37.9505 42.7285 37.8427 42.3404C37.7026 41.9522 37.6918 41.5317 37.6164 41.122C37.5625 40.8956 37.5086 40.7015 37.2607 40.6368C37.0235 40.5182 36.7864 40.6368 36.5601 40.68C36.0966 40.777 35.8487 40.6368 35.7625 40.1409C35.7086 39.7851 35.6116 39.4293 35.6008 39.0842C35.5577 38.2972 35.4391 37.4778 36.1936 36.8955C37.0774 35.1165 37.7134 33.262 38.2415 31.3644C38.3601 30.9332 38.5541 30.5774 39.1361 30.5558C39.4702 30.5558 39.7504 30.3078 39.869 29.9412C40.2031 28.8199 40.5265 27.6986 41.0438 26.642C41.2055 25.8765 41.5828 25.1541 41.6151 24.3562C41.6151 24.1945 41.6474 24.0328 41.6367 23.8818C41.6151 23.8171 41.5935 23.7632 41.5504 23.7093C41.5181 23.6877 41.4857 23.6662 41.4642 23.6446C41.4857 23.2996 41.5073 22.9546 41.4965 22.6203C41.475 22.1459 41.2486 21.747 40.7852 21.6284C40.354 21.5206 40.2786 21.2834 40.3001 20.8952C40.3971 19.3966 40.4834 17.8871 40.5696 16.3776C40.5912 16.3237 40.5804 16.2806 40.548 16.2375C40.5696 16.2159 40.5696 16.1836 40.548 16.1512C40.5049 15.6984 40.4618 15.2348 40.4079 14.7819C40.2894 13.693 40.1708 12.5932 39.5995 11.6228C38.5002 9.75758 36.9697 8.33438 35.0511 7.35323C33.4236 6.52303 31.656 6.11331 29.8776 5.75751C26.1806 5.01356 22.8932 5.84377 20.0262 8.29125C20.037 8.31281 20.0478 8.34516 20.0478 8.36672C19.7244 8.57158 19.4658 8.85191 19.2825 9.18614C18.9376 9.83306 18.4418 10.3506 17.9245 10.8358C16.9652 11.7307 16.4478 12.7765 16.5987 14.0919C16.5664 14.1027 16.5233 14.1242 16.491 14.1566C16.4478 14.2105 16.4047 14.2644 16.3724 14.3183C16.1461 15.3965 16.4371 16.4639 16.4263 17.5313C16.685 18.437 16.6957 19.375 16.7712 20.3022C16.8143 20.809 16.6742 21.154 16.1784 21.3265C15.5533 21.5529 15.3054 22.0489 15.2191 22.6527C15.1329 23.2888 15.1113 23.9142 15.2838 24.5503C15.5317 25.4344 15.7796 26.3185 16.0706 27.1811C16.5233 27.9142 16.8035 28.7337 16.9652 29.5639C17.073 30.1137 17.2993 30.4264 17.7844 30.6097C18.1831 30.7499 18.3987 31.0194 18.4849 31.4291C18.6251 32.076 18.8622 32.6906 19.067 33.316C19.2933 33.8227 19.6705 34.2755 19.6705 34.8685C19.6705 34.9332 19.6921 34.9871 19.7137 35.0518C20.8023 36.7877 21.3843 38.6098 20.6729 40.6476C20.3065 41.0465 19.94 40.6261 19.5628 40.6261C19.1963 40.6261 18.8837 40.5829 18.7975 41.0358C18.5173 41.9199 18.3664 42.8471 18.0861 43.7312C17.9352 44.2164 17.6874 44.5722 17.2239 44.7986C16.2107 45.3054 15.1868 45.7798 14.0982 46.0817C13.376 46.5992 12.503 46.7501 11.6839 47.052C10.0995 47.6343 8.45038 47.9685 6.82286 48.3998C4.82888 48.9281 2.89957 49.5966 1.23972 50.8688C0.388239 51.9039 -0.721921 52.7556 -1.14227 54.1142C-1.14227 54.6964 -1.10994 55.2786 -1.14227 55.85C-1.17461 56.3029 -1.04527 56.3999 -0.592584 56.3999C19.0346 56.3891 38.6618 56.3891 58.2891 56.3891C58.5801 56.1519 58.5046 55.8824 58.3861 55.5805L58.3537 55.6021Z" fill="#7851A9"/>
</g>
</svg>
