<svg width="37" height="37" viewBox="0 0 37 37" fill="none" xmlns="http://www.w3.org/2000/svg">
<path d="M15.0172 0.424259C14.8667 0.474411 14.6303 0.610538 14.5013 0.725174C14.3652 0.832645 12.4952 2.83875 10.353 5.17444L6.44822 9.43026V18.0135V26.5968L4.77169 31.4975C3.84744 34.1914 3.045 36.5271 2.98052 36.6919L2.87305 36.9999H8.18924H13.5054L15.3897 33.2385L17.2669 29.477V22.7566C17.2669 15.3698 17.2812 15.599 16.837 15.0545C16.142 14.2163 14.9025 14.1231 14.0929 14.8539C13.9353 14.9972 13.7275 15.2695 13.6416 15.4701L13.4696 15.8283V19.3892V22.9572H12.3949H11.3202V16.294V9.6237L14.2076 6.3996C15.791 4.62276 17.1523 3.0537 17.2311 2.9104C17.3314 2.71695 17.3744 2.50201 17.3744 2.10796C17.3744 1.64942 17.3457 1.52045 17.1737 1.23387C16.7295 0.474411 15.8196 0.137669 15.0172 0.424259Z" fill="#C0C0C0"/>
<path d="M20.4624 0.424255C20.0468 0.581879 19.7316 0.854137 19.5094 1.23386C19.3375 1.52045 19.3088 1.64941 19.3088 2.10796C19.3088 2.50201 19.3518 2.71695 19.4521 2.9104C19.5309 3.05369 20.8922 4.62276 22.4828 6.3996L25.363 9.6237V16.294V22.9572H24.2883H23.2136V19.3892V15.8283L23.0416 15.4701C22.447 14.1948 20.7418 13.9727 19.8462 15.0545C19.402 15.599 19.4163 15.3698 19.4163 22.7566V29.477L21.2935 33.2385L23.1778 36.9999H28.494H33.8101L33.7027 36.6919C33.6382 36.5271 32.8358 34.1914 31.9115 31.4975L30.235 26.5968V18.0135V9.43026L26.2228 5.06697C23.5933 2.2011 22.1102 0.646358 21.9168 0.538891C21.5442 0.323948 20.8564 0.273796 20.4624 0.424255Z" fill="#C0C0C0"/>
<path d="M4.29892 1.42728L3.54663 2.17958L4.62133 3.25428L5.69603 4.32898L6.46266 3.56236L7.23644 2.78857L6.18323 1.73537C5.60289 1.14786 5.10853 0.674994 5.08704 0.674994C5.06554 0.674994 4.71447 1.01173 4.29892 1.42728Z" fill="#C0C0C0"/>
<path d="M30.5 1.73537L29.4468 2.78857L30.2206 3.56236L30.9872 4.32898L32.0619 3.25428L33.1366 2.17958L32.3843 1.42728C31.9687 1.01173 31.6177 0.674994 31.5962 0.674994C31.5747 0.674994 31.0803 1.14786 30.5 1.73537Z" fill="#C0C0C0"/>
<path d="M0 6.76502V7.83972H1.61205H3.22411V6.76502V5.69032H1.61205H0V6.76502Z" fill="#C0C0C0"/>
<path d="M33.459 6.76502V7.83972H35.071H36.6831V6.76502V5.69032H35.071H33.459V6.76502Z" fill="#C0C0C0"/>
</svg>
