<svg width="39" height="39" viewBox="0 0 39 39" fill="none" xmlns="http://www.w3.org/2000/svg">
<path d="M17.3556 0.77356C7.32824 1.74636 -0.311972 10.3743 0.00979945 20.3792C0.107079 23.2901 0.735657 25.8119 2.01526 28.3786C3.87855 32.1351 6.85681 35.1134 10.6208 36.9841C16.7195 40.0223 23.9332 39.6032 29.6203 35.8841C31.8428 34.4324 33.953 32.2773 35.3897 29.9875C35.9435 29.1194 36.7666 27.4282 37.1408 26.4106C37.5224 25.3779 37.9639 23.5969 38.1211 22.437C38.2932 21.2622 38.3156 18.5384 38.166 17.4982C37.7245 14.3927 36.7367 11.7437 35.0979 9.27432C34.4095 8.2267 33.7135 7.37363 32.7407 6.39334C29.755 3.37767 26.0434 1.5069 21.8005 0.878323C20.8876 0.743629 18.3134 0.683765 17.3556 0.77356ZM19.7277 5.90694C20.0794 6.04913 20.3862 6.34097 20.5733 6.70015C20.708 6.96954 20.7155 7.23893 20.7155 14.2057C20.7155 18.1792 20.7379 21.4268 20.7753 21.4268C20.8052 21.4268 21.6733 20.5812 22.6985 19.5561C24.4345 17.8125 24.5992 17.6703 24.9658 17.5656C25.4597 17.4159 25.8264 17.4758 26.2903 17.7676C26.6795 18.0145 27.0012 18.5833 27.0012 19.0322C27.0012 19.7357 27.0461 19.6833 23.4992 23.2452C21.6583 25.0935 20.0345 26.665 19.8923 26.7398C19.4882 26.9418 19.1739 26.9867 18.7474 26.8895C18.3658 26.7997 18.2685 26.7099 14.961 23.4173C12.6861 21.15 11.5262 19.9452 11.429 19.7431C11.2494 19.3615 11.2494 18.7853 11.429 18.3887C11.6609 17.8799 12.3045 17.4608 12.8582 17.4608C13.4269 17.4608 13.5916 17.5805 15.5521 19.5336C16.6072 20.5738 17.4902 21.4268 17.5202 21.4268C17.5501 21.4268 17.5726 18.1792 17.5726 14.2057C17.5726 7.23893 17.58 6.96954 17.7147 6.70015C18.1113 5.93688 18.9794 5.59266 19.7277 5.90694ZM25.8339 29.067C27.0461 29.3738 27.4053 30.9677 26.455 31.8058C26.3053 31.9405 26.0584 32.0827 25.9012 32.1201C25.5121 32.2324 12.7759 32.2324 12.3868 32.1201C12.2297 32.0827 11.9827 31.9405 11.833 31.8058C10.9051 30.9902 11.2194 29.4487 12.3868 29.082C12.7759 28.9623 25.3624 28.9473 25.8339 29.067Z" fill="#C0C0C0"/>
</svg>
