<svg width="39" height="42" viewBox="0 0 39 42" fill="none" xmlns="http://www.w3.org/2000/svg">
<path d="M17.6537 0.946042C15.0976 1.51611 13.0472 3.29066 12.2197 5.64448C11.2451 8.44883 11.9255 11.3819 14.0494 13.4231L14.6931 14.0483H19.134H23.575L24.3198 13.2852C25.4691 12.1267 26.1311 10.8302 26.3794 9.26715C26.8023 6.69266 25.6806 3.88831 23.621 2.32523C22.9498 1.81953 21.8189 1.25866 21.0097 1.03799C20.2374 0.826512 18.4169 0.771345 17.6537 0.946042ZM19.6306 3.98026C19.7593 4.09979 19.8604 4.30207 19.8604 4.4216C19.8604 4.5871 19.934 4.67905 20.1363 4.7618C20.7523 5.01925 21.3316 5.9479 21.3316 6.68347C21.3316 7.06964 20.9822 7.42823 20.596 7.42823C20.219 7.42823 19.8604 7.06964 19.8604 6.69266C19.8604 6.31569 19.5018 5.9571 19.1248 5.9571C18.7479 5.9571 18.3893 6.31569 18.3893 6.69266C18.3893 7.07884 18.7479 7.42823 19.134 7.42823C20.265 7.42823 21.3316 8.504 21.3316 9.63493C21.3316 10.3797 20.7615 11.3084 20.1363 11.5658C19.934 11.6486 19.8604 11.7405 19.8604 11.906C19.8604 12.2186 19.4742 12.5772 19.1248 12.5772C18.7755 12.5772 18.3893 12.2186 18.3893 11.906C18.3893 11.7405 18.3157 11.6486 18.1134 11.5658C17.4974 11.3084 16.9181 10.3797 16.9181 9.64413C16.9181 9.25796 17.2675 8.89937 17.6537 8.89937C18.0307 8.89937 18.3893 9.25796 18.3893 9.63493C18.3893 10.0119 18.7479 10.3705 19.1248 10.3705C19.5018 10.3705 19.8604 10.0119 19.8604 9.63493C19.8604 9.24876 19.5018 8.89937 19.1157 8.89937C17.9847 8.89937 16.9181 7.8236 16.9181 6.69266C16.9181 5.9479 17.4882 5.01925 18.1134 4.7618C18.3157 4.67905 18.3893 4.5871 18.3893 4.4216C18.3893 4.10898 18.7755 3.75039 19.1248 3.75039C19.2995 3.75039 19.4926 3.83315 19.6306 3.98026Z" fill="#C0C0C0"/>
<path d="M4.75365 9.73612C4.6617 9.79129 3.62271 11.7773 2.43661 14.1495L0.275879 18.4618H19.1248H37.9737L35.813 14.1403C34.5074 11.5291 33.5879 9.79129 33.4776 9.72693C33.3672 9.67176 32.2915 9.63498 30.5537 9.63498H27.8137L27.6482 10.3522C27.4551 11.2165 26.7379 12.706 26.1587 13.4507L25.7357 14.0024L27.3999 14.0484C29.0182 14.0944 29.0733 14.1036 29.248 14.315C29.4871 14.6093 29.4687 15.023 29.1929 15.2897L28.9722 15.5195H19.1248H9.27739L9.05672 15.2897C8.78088 15.023 8.76249 14.6093 9.00155 14.315C9.17625 14.1036 9.23141 14.0944 10.8497 14.0484L12.5139 14.0024L12.0909 13.4507C11.5117 12.706 10.7945 11.2165 10.6014 10.3522L10.4359 9.63498H7.67753C5.94894 9.63498 4.85479 9.67176 4.75365 9.73612Z" fill="#C0C0C0"/>
<path d="M0 30.7366V41.5494L0.229865 41.7701L0.450535 41.9999H19.1248H37.799L38.0196 41.7701L38.2495 41.5494V30.7366V19.9329H19.1248H0V30.7366ZM16.9272 24.2452C17.5709 24.4658 18.1042 24.7969 18.6834 25.3393L19.1248 25.7531L19.5661 25.3393C20.4028 24.5578 21.3223 24.1256 22.3613 24.0153C23.9243 23.859 25.6161 24.7141 26.4988 26.0933C27.3723 27.4541 27.3263 29.4217 26.3977 30.8377C26.1862 31.1595 24.6967 32.7134 22.7382 34.6627C19.6856 37.7061 19.419 37.9543 19.1248 37.9543C18.8305 37.9543 18.5639 37.7061 15.5113 34.6627C13.5528 32.7134 12.0633 31.1595 11.8518 30.8377C10.9232 29.4217 10.8772 27.4633 11.7599 26.0841C12.3483 25.1554 13.5712 24.2912 14.6194 24.0705C15.2079 23.951 16.3204 24.0337 16.9272 24.2452Z" fill="#C0C0C0"/>
<path d="M14.3896 25.6703C12.946 26.2772 12.2288 27.877 12.7345 29.4034C12.8816 29.8723 13.1023 30.1205 16.0078 33.0352L19.1248 36.1614L22.2417 33.0352C25.1472 30.1205 25.3679 29.8723 25.515 29.4034C25.892 28.2632 25.6529 27.1875 24.8346 26.3599C24.1634 25.6795 23.4922 25.4129 22.6187 25.4773C21.7268 25.5324 21.2579 25.7899 20.2741 26.7369C19.134 27.8403 19.1156 27.8403 17.9755 26.7369C16.9732 25.7623 16.5135 25.5232 15.5849 25.4773C15.0516 25.4497 14.8401 25.4865 14.3896 25.6703Z" fill="#C0C0C0"/>
</svg>
