<svg width="720" height="1280" viewBox="0 0 720 1280" fill="none" xmlns="http://www.w3.org/2000/svg">
<rect width="720" height="1280" fill="#7851A9"/>
<path opacity="0.5" fill-rule="evenodd" clip-rule="evenodd" d="M0 1107.01C18.8103 1121.24 38.4565 1134.32 58.7387 1146.21C126.997 1186.15 202.98 1211.74 280.348 1222.1C319.053 1227.27 358.155 1228.69 396.92 1226.26C416.301 1225.06 435.592 1222.89 454.704 1219.78C473.824 1216.68 492.735 1212.6 511.411 1207.71C530.081 1202.8 548.478 1196.98 566.526 1190.28C575.555 1186.93 584.482 1183.35 593.321 1179.57C595.538 1178.66 597.735 1177.69 599.929 1176.7L606.508 1173.77C608.232 1173.02 609.934 1172.21 611.634 1171.4L611.635 1171.4L611.689 1171.38C612.141 1171.16 612.592 1170.95 613.044 1170.74L619.553 1167.65C636.839 1159.3 653.694 1150.11 670.04 1140.13C672.695 1138.5 675.323 1136.84 677.95 1135.17C679.367 1134.28 680.785 1133.38 682.205 1132.49L694.187 1124.58L705.984 1116.43L717.581 1107.99C717.881 1107.76 718.181 1107.54 718.481 1107.31C718.988 1106.93 719.494 1106.55 720 1106.17V1094.86C717.426 1096.77 714.835 1098.65 712.229 1100.52C651.056 1144.34 581.205 1175.93 507.95 1192.91C471.326 1201.42 433.875 1206.28 396.309 1207.42C358.747 1208.57 321.075 1205.99 284.006 1199.84C246.941 1193.64 210.479 1183.88 175.338 1170.63C140.192 1157.4 106.363 1140.68 74.5199 1120.8C48.2292 1104.39 23.2845 1085.83 0 1065.39V1107.01ZM0 201.943C13.8528 189.82 28.2876 178.36 43.2441 167.625C73.7497 145.759 106.331 126.794 140.486 111.218C174.631 95.623 210.316 83.395 246.86 74.7864C283.403 66.1778 320.805 61.1887 358.343 59.9279C395.887 58.6587 433.544 61.1155 470.636 67.1374C507.718 73.2121 544.225 82.8466 579.435 95.9831C614.651 109.111 648.57 125.741 680.525 145.543C694.051 153.917 707.222 162.862 720 172.339V155.115C709.751 147.33 699.235 139.876 688.47 132.772C672.358 122.162 655.735 112.259 638.635 103.178C621.53 94.106 603.951 85.87 585.987 78.5156C550.057 63.793 512.569 52.6083 474.271 45.0934C397.69 30.0966 317.55 29.9935 240.103 45.9007C162.675 61.7603 88.127 93.4294 22.4603 138.639C14.8571 143.886 7.36716 149.307 0 154.897V201.943Z" fill="url(#paint0_linear_1_3)"/>
<defs>
<linearGradient id="paint0_linear_1_3" x1="-212.194" y1="536.473" x2="966.835" y2="730.725" gradientUnits="userSpaceOnUse">
<stop stop-color="#BAE6E6"/>
<stop offset="0.07" stop-color="#BAE6E6" stop-opacity="0.79"/>
<stop offset="0.14" stop-color="#BAE6E6" stop-opacity="0.61"/>
<stop offset="0.22" stop-color="#BAE6E6" stop-opacity="0.44"/>
<stop offset="0.31" stop-color="#BAE6E6" stop-opacity="0.31"/>
<stop offset="0.4" stop-color="#BAE6E6" stop-opacity="0.19"/>
<stop offset="0.5" stop-color="#BAE6E6" stop-opacity="0.11"/>
<stop offset="0.61" stop-color="#BAE6E6" stop-opacity="0.05"/>
<stop offset="0.75" stop-color="#BAE6E6" stop-opacity="0.01"/>
<stop offset="1" stop-color="#BAE6E6" stop-opacity="0"/>
</linearGradient>
</defs>
</svg>
