<svg width="73" height="73" viewBox="0 0 73 73" fill="none" xmlns="http://www.w3.org/2000/svg">
<path opacity="0.3" d="M72.8907 36.4504C72.8907 56.5866 56.5677 72.9151 36.4383 72.9151C16.3088 72.9151 0 56.5866 0 36.4504C0 16.3143 16.3231 0 36.4383 0C56.5534 0 72.8907 16.3285 72.8907 36.4504Z" fill="#6D6E70"/>
<mask id="mask0_1_535" style="mask-type:luminance" maskUnits="userSpaceOnUse" x="0" y="0" width="73" height="73">
<path d="M72.8907 36.4504C72.8907 56.5866 56.5677 72.9151 36.4383 72.9151C16.3088 72.9151 0 56.5866 0 36.4504C0 16.3143 16.3231 0 36.4383 0C56.5534 0 72.8907 16.3285 72.8907 36.4504Z" fill="white"/>
</mask>
<g mask="url(#mask0_1_535)">
<path fill-rule="evenodd" clip-rule="evenodd" d="M77.1816 73.5426C76.6683 72.2021 75.9556 70.9614 75.0717 69.8348C73.6746 68.0522 71.8213 66.783 69.797 65.8275C69.2125 65.5423 68.628 65.2143 67.9865 65.0574C65.9621 64.6011 63.952 64.0592 61.9562 63.4602C61.2434 63.503 60.6446 63.2463 60.1029 62.8042C58.6203 62.2053 57.0807 61.7632 55.6978 60.9361C55.2131 60.8648 54.7569 60.7364 54.4148 60.3371C54.1582 60.2658 53.9586 60.109 53.702 60.0377C52.9892 59.8665 52.3904 59.4958 51.92 58.9111C51.6491 58.7257 51.3498 58.5688 51.0932 58.3549C50.7653 58.1838 50.5657 57.9556 50.4659 57.5563C50.3518 57.0287 50.195 56.5153 50.0525 56.0019C49.8671 55.4885 49.8529 54.9323 49.7531 54.3904C49.6818 54.0909 49.6105 53.8343 49.2826 53.7487C48.969 53.5918 48.6554 53.7487 48.356 53.8057C47.743 53.9341 47.4151 53.7487 47.3011 53.0927C47.2298 52.6221 47.1015 52.1515 47.0872 51.6951C47.0302 50.6541 46.8734 49.5703 47.8713 48.8002C49.0403 46.4472 49.8814 43.9944 50.5799 41.4845C50.7368 40.914 50.9934 40.4434 51.7632 40.4149C52.2051 40.4149 52.5758 40.0869 52.7326 39.6021C53.1745 38.1189 53.6022 36.6358 54.2865 35.2383C54.5003 34.2258 54.9993 33.2703 55.042 32.215C55.042 32.0011 55.0848 31.7872 55.0706 31.5875C55.0421 31.502 55.0135 31.4307 54.9565 31.3594C54.9137 31.3308 54.871 31.3023 54.8425 31.2738C54.871 30.8174 54.8995 30.3611 54.8852 29.919C54.8567 29.2915 54.5574 28.7639 53.9443 28.607C53.3741 28.4644 53.2743 28.1507 53.3028 27.6373C53.4311 25.6551 53.5452 23.6586 53.6592 21.6621C53.6877 21.5908 53.6735 21.5337 53.6307 21.4767C53.6592 21.4481 53.6592 21.4054 53.6307 21.3626C53.5737 20.7636 53.5167 20.1504 53.4454 19.5515C53.2886 18.1111 53.1317 16.6565 52.3762 15.3731C50.9221 12.906 48.8977 11.0236 46.3602 9.72583C44.2075 8.62775 41.8695 8.08584 39.5173 7.61524C34.6275 6.63125 30.2794 7.72933 26.4874 10.9665C26.5016 10.995 26.5159 11.0378 26.5159 11.0663C26.0882 11.3373 25.746 11.7081 25.5037 12.1502C25.0475 13.0058 24.3917 13.6903 23.7074 14.332C22.4387 15.5157 21.7544 16.899 21.954 18.6388C21.9112 18.653 21.8542 18.6816 21.8114 18.7243C21.7544 18.7956 21.6973 18.867 21.6546 18.9383C21.3552 20.3643 21.7401 21.7761 21.7259 23.188C22.068 24.3859 22.0823 25.6265 22.182 26.853C22.2391 27.5232 22.0537 27.9796 21.398 28.2077C20.5711 28.5072 20.2432 29.1632 20.1292 29.9618C20.0151 30.8032 19.9866 31.6303 20.2147 32.4717C20.5426 33.6411 20.8705 34.8104 21.2554 35.9513C21.8542 36.921 22.2248 38.0049 22.4387 39.1029C22.5812 39.8302 22.8806 40.2438 23.5221 40.4862C24.0496 40.6716 24.3347 41.0281 24.4487 41.57C24.6341 42.4257 24.9477 43.2385 25.2186 44.0657C25.5179 44.7359 26.0169 45.3349 26.0169 46.1192C26.0169 46.2048 26.0454 46.2761 26.0739 46.3616C27.5138 48.6576 28.2836 51.0677 27.3427 53.7629C26.858 54.2906 26.3733 53.7344 25.8743 53.7344C25.3896 53.7344 24.9762 53.6774 24.8622 54.2763C24.4915 55.4457 24.2919 56.6721 23.9213 57.8415C23.7217 58.4832 23.3938 58.9538 22.7808 59.2533C21.4407 59.9236 20.0864 60.5511 18.6466 60.9504C17.6914 61.6349 16.5367 61.8345 15.4532 62.2338C13.3576 63.0039 11.1764 63.446 9.0238 64.0164C6.38644 64.7152 3.83462 65.5993 1.6392 67.2821C0.512983 68.6511 -0.955379 69.7777 -1.51136 71.5746C-1.51136 72.3447 -1.46859 73.1148 -1.51136 73.8706C-1.55413 74.4695 -1.38306 74.5979 -0.78431 74.5979C25.1758 74.5836 51.1359 74.5836 77.096 74.5836C77.4809 74.2699 77.3811 73.9134 77.2243 73.5141L77.1816 73.5426Z" fill="#7851A9"/>
</g>
</svg>
