<svg width="383" height="465" viewBox="0 0 383 465" fill="none" xmlns="http://www.w3.org/2000/svg">
<path d="M23.8963 121.318H358.458C371.636 121.318 382.341 132.023 382.341 145.201V379.069C382.341 392.26 371.636 402.953 358.458 402.953H23.8963C10.7057 402.953 0 392.247 0 379.057V145.214C0 132.023 10.7057 121.33 23.8838 121.33L23.8963 121.318Z" fill="url(#paint0_linear_1_10)"/>
<path d="M23.8838 121.83H24.0909L24.1035 121.818H358.458C371.36 121.818 381.841 132.299 381.841 145.201V379.069C381.841 391.984 371.36 402.453 358.458 402.453H23.8963C10.9818 402.453 0.5 391.971 0.5 379.057V145.214C0.5 132.3 10.9816 121.83 23.8838 121.83Z" stroke="white" stroke-opacity="0.49"/>
<path d="M258.63 360.595C276.741 353.441 280.443 346.438 283.807 335.431C306.109 262.437 283.33 185.414 283.33 185.414C278.812 172.524 274.118 168.32 264.705 166.161C148.687 132.651 52.8758 165.42 52.8758 165.42C38.1414 170.466 33.6483 176.415 28.7662 190.597C13.8686 263.453 28.7662 335.443 28.7662 335.443C32.3305 349.487 41.9317 354.119 49.8888 358.348C49.8888 358.348 137.216 390.289 258.655 360.607L258.63 360.595Z" fill="#302E2F"/>
<path d="M248.866 352.663C265.219 346.199 268.57 339.874 271.607 329.934C291.751 264.005 271.168 194.45 271.168 194.45C267.089 182.803 262.847 179.013 254.338 177.055C149.565 146.795 63.0289 176.39 63.0289 176.39C49.7252 180.946 45.6588 186.317 41.2536 199.119C27.7993 264.922 41.2536 329.934 41.2536 329.934C44.4665 342.61 53.139 346.802 60.3305 350.617C60.3305 350.617 139.198 379.458 248.866 352.663Z" fill="white"/>
<path d="M176.687 124.029C175.696 99.9063 155.841 80.6537 131.48 80.6537C107.119 80.6537 87.2518 99.9063 86.2603 124.029H176.687Z" fill="#302E2F"/>
<path d="M64.9368 464.376H40.2247L23.8838 402.966H81.2651L64.9368 464.376Z" fill="#302E2F"/>
<path d="M334.637 464.376H309.925L293.596 402.966H350.977L334.637 464.376Z" fill="#302E2F"/>
<path d="M63.6331 5.98159L59.6011 8.55225L116.048 97.0872L120.08 94.5165L63.6331 5.98159Z" fill="#363436"/>
<path d="M55.1726 10.2449C56.026 11.5752 59.3645 10.9728 62.6276 8.88939C65.8908 6.806 67.8487 4.03231 66.9952 2.70195C66.1418 1.37159 62.8033 1.97402 59.5402 4.05741C56.277 6.14081 54.3191 8.9145 55.1726 10.2449Z" fill="#363436"/>
<path d="M193.673 3.96415L137.242 92.5089L141.275 95.0789L197.706 6.5341L193.673 3.96415Z" fill="#363436"/>
<path d="M202.14 8.24931C201.286 9.57968 197.948 8.97725 194.685 6.89385C191.422 4.81045 189.464 2.03677 190.317 0.706406C191.171 -0.623957 194.509 -0.0215285 197.772 2.06187C201.048 4.14527 202.993 6.91895 202.14 8.26186V8.24931Z" fill="#363436"/>
<path d="M310.338 188.777C310.338 202.784 321.684 214.129 335.691 214.129C349.697 214.129 361.043 202.771 361.043 188.777C361.043 174.783 349.697 163.425 335.691 163.425C321.684 163.425 310.338 174.783 310.338 188.777Z" fill="white"/>
<path d="M316.25 188.777C316.25 199.32 324.796 207.879 335.339 207.879C345.881 207.879 354.428 199.332 354.428 188.777C354.428 178.222 345.881 169.688 335.339 169.688C324.796 169.688 316.25 178.235 316.25 188.777Z" fill="#363436"/>
<path d="M359.512 193.722C363.214 193.722 366.226 190.71 366.226 187.007C366.226 183.292 363.214 180.293 359.512 180.293H312.271C308.569 180.293 305.557 183.292 305.557 187.007C305.557 190.71 308.569 193.722 312.271 193.722H359.512Z" fill="white"/>
<path d="M335.892 229.981C321.885 229.981 310.54 241.326 310.54 255.333C310.54 269.339 321.885 280.685 335.892 280.685C349.898 280.685 361.244 269.339 361.244 255.333C361.244 241.326 349.898 229.981 335.892 229.981Z" fill="white"/>
<path d="M335.892 235.892C325.337 235.892 316.79 244.439 316.79 254.981C316.79 265.524 325.337 274.071 335.892 274.071C346.447 274.071 354.981 265.524 354.981 254.981C354.981 244.439 346.434 235.892 335.892 235.892Z" fill="#363436"/>
<path d="M330.947 279.154C330.947 282.869 333.959 285.868 337.661 285.868C341.376 285.868 344.376 282.856 344.376 279.154V231.913C344.376 228.211 341.376 225.199 337.661 225.199C333.959 225.199 330.947 228.211 330.947 231.913V279.154Z" fill="white"/>
<path d="M367.695 293.926H307.615V299.486H367.695V293.926Z" fill="#231F20"/>
<path d="M367.695 304.431H307.615V309.991H367.695V304.431Z" fill="#231F20"/>
<path d="M367.695 314.936H307.615V320.496H367.695V314.936Z" fill="#231F20"/>
<path d="M367.695 325.44H307.615V331H367.695V325.44Z" fill="#231F20"/>
<path d="M367.695 335.945H307.615V341.505H367.695V335.945Z" fill="#231F20"/>
<path d="M367.695 346.463H307.615V352.023H367.695V346.463Z" fill="#231F20"/>
<path d="M367.695 356.968H307.615V362.527H367.695V356.968Z" fill="#231F20"/>
<path d="M367.695 367.472H307.615V373.032H367.695V367.472Z" fill="#231F20"/>
<path d="M170.148 252.747H141.307V272.552H170.148V252.747Z" fill="#DCAD86"/>
<path d="M141.207 254.09V261.345L150.193 265.511C150.193 265.511 155.288 267.984 160.434 265.511C160.434 265.511 168.63 261.922 170.148 255.433L141.207 254.09Z" fill="#D1A480"/>
<path d="M134.429 227.947C135.069 231.311 133.676 234.398 131.317 234.838C128.957 235.29 126.535 232.917 125.895 229.554C125.255 226.19 126.661 223.103 129.008 222.651C131.367 222.199 133.789 224.571 134.429 227.935V227.947Z" fill="#DCAD86"/>
<path d="M178.356 227.709C177.716 231.073 179.122 234.16 181.469 234.612C183.828 235.064 186.251 232.692 186.891 229.328C187.531 225.964 186.138 222.877 183.778 222.425C181.419 221.973 178.996 224.345 178.356 227.709Z" fill="#DCAD86"/>
<path d="M178.319 227.897C177.829 230.47 178.896 232.842 180.703 233.181C182.51 233.52 184.368 231.713 184.857 229.14C185.347 226.567 184.28 224.195 182.473 223.856C180.666 223.517 178.808 225.324 178.319 227.897Z" fill="#E7BC94"/>
<path d="M134.002 227.897C134.492 230.47 133.425 232.842 131.618 233.181C129.811 233.52 127.953 231.713 127.464 229.14C126.974 226.567 128.041 224.195 129.848 223.856C131.655 223.517 133.513 225.324 134.002 227.897Z" fill="#E7BC94"/>
<path d="M127.514 209.887L134.216 243.811C134.216 243.811 134.68 250.551 142.976 256.098L150.118 259.7C150.118 259.7 154.272 263.378 161.187 259.7L169.094 255.207C169.094 255.207 178.181 249.058 178.783 242.908L185.171 209.875C185.171 209.875 185.862 179.301 155.527 179.879C155.527 179.879 127.501 180.456 127.501 209.875L127.514 209.887Z" fill="#DCAD86"/>
<path d="M160.384 212.749C160.384 212.749 157.685 213.426 160.384 215.686L174.378 214.217C174.378 214.217 177.327 213.426 179.034 214.217C179.034 214.217 174.378 211.167 171.177 211.619L160.371 212.749H160.384Z" fill="#5E3300"/>
<path d="M150.519 212.749C150.519 212.749 153.218 213.426 150.519 215.686L136.525 214.217C136.525 214.217 133.576 213.426 131.869 214.217C131.869 214.217 136.525 211.167 139.726 211.619L150.532 212.749H150.519Z" fill="#5E3300"/>
<path d="M149.415 222.375C147.934 219.614 144.094 219.313 144.094 219.313C140.73 219.037 138.609 221.773 138.609 221.773C141.721 224.371 143.679 224.182 143.679 224.182C143.679 224.182 147.068 223.869 148.549 222.89C148.549 222.89 148.913 222.588 149.415 222.927C149.415 222.927 149.478 222.676 149.415 222.375Z" fill="white"/>
<path d="M145.989 221.195C145.926 222.362 144.897 223.254 143.704 223.178C142.5 223.115 141.583 222.111 141.646 220.944C141.709 219.777 142.738 218.886 143.943 218.961C145.148 219.024 146.064 220.028 146.001 221.195H145.989Z" fill="#231F20"/>
<path d="M145.675 221.183C145.612 222.174 144.734 222.94 143.704 222.89C142.675 222.827 141.885 221.973 141.947 220.982C141.998 219.99 142.876 219.225 143.918 219.275C144.947 219.338 145.738 220.191 145.675 221.183Z" fill="#6C8F26"/>
<path d="M145.298 221.17C145.248 221.986 144.545 222.601 143.705 222.551C142.864 222.501 142.224 221.81 142.274 220.994C142.324 220.179 143.039 219.564 143.868 219.614C144.709 219.664 145.349 220.354 145.298 221.17Z" fill="#527119"/>
<path d="M144.683 221.132C144.658 221.635 144.244 222.011 143.767 221.986C143.29 221.961 142.926 221.534 142.951 221.032C142.977 220.53 143.391 220.154 143.868 220.179C144.345 220.204 144.708 220.63 144.683 221.132Z" fill="#231F20"/>
<path d="M142.7 220.555C142.7 220.768 142.876 220.931 143.076 220.931C143.277 220.931 143.452 220.768 143.452 220.555C143.452 220.342 143.289 220.179 143.076 220.179C142.863 220.179 142.7 220.342 142.7 220.555Z" fill="white"/>
<path d="M149.44 221.948C149.44 221.948 145.436 216.024 138.069 220.856C138.069 220.856 137.981 221.484 138.621 221.773C138.621 221.773 141.721 218.723 145.499 219.827C145.499 219.827 147.796 220.166 149.415 222.388C149.415 222.388 149.779 222.388 149.44 221.961V221.948Z" fill="#85674F"/>
<path d="M138.609 221.773C138.609 221.773 142.688 225.387 148.361 223.015C148.361 223.015 143.29 226.554 138.609 221.773Z" fill="#B98F6F"/>
<path d="M148.36 219.551C148.36 219.551 144.256 214.732 138.408 219.237C138.408 219.237 143.491 216.953 148.36 219.551Z" fill="#CB9C79"/>
<path d="M161.338 222.375C162.819 219.614 166.66 219.313 166.66 219.313C170.023 219.037 172.144 221.773 172.144 221.773C169.032 224.371 167.074 224.182 167.074 224.182C167.074 224.182 163.685 223.869 162.204 222.89C162.204 222.89 161.84 222.588 161.338 222.927C161.338 222.927 161.263 222.676 161.338 222.375Z" fill="white"/>
<path d="M161.313 221.948C161.313 221.948 165.317 216.024 172.684 220.856C172.684 220.856 172.772 221.484 172.144 221.773C172.144 221.773 169.044 218.723 165.266 219.827C165.266 219.827 162.97 220.166 161.351 222.388C161.351 222.388 160.987 222.388 161.326 221.961L161.313 221.948Z" fill="#85674F"/>
<path d="M172.144 221.773C172.144 221.773 168.065 225.387 162.392 223.015C162.392 223.015 167.463 226.554 172.144 221.773Z" fill="#B98F6F"/>
<path d="M162.392 219.551C162.392 219.551 166.496 214.732 172.345 219.237C172.345 219.237 167.274 216.953 162.392 219.551Z" fill="#CB9C79"/>
<path d="M164.727 221.195C164.789 222.362 165.818 223.254 167.023 223.178C168.228 223.115 169.144 222.111 169.082 220.944C169.019 219.777 167.99 218.886 166.797 218.961C165.593 219.024 164.676 220.028 164.739 221.195H164.727Z" fill="#231F20"/>
<path d="M165.04 221.183C165.091 222.174 165.969 222.94 166.998 222.89C168.027 222.827 168.818 221.973 168.755 220.982C168.705 219.99 167.827 219.225 166.785 219.275C165.756 219.338 164.965 220.191 165.028 221.183H165.04Z" fill="#6C8F26"/>
<path d="M165.417 221.17C165.467 221.986 166.182 222.601 167.011 222.551C167.851 222.501 168.492 221.81 168.441 220.994C168.391 220.179 167.676 219.564 166.847 219.614C166.019 219.664 165.379 220.354 165.417 221.17Z" fill="#527119"/>
<path d="M166.044 221.132C166.069 221.635 166.483 222.011 166.96 221.986C167.437 221.961 167.801 221.534 167.776 221.032C167.751 220.53 167.337 220.154 166.86 220.179C166.383 220.204 166.019 220.63 166.044 221.132Z" fill="#231F20"/>
<path d="M168.027 220.555C168.027 220.768 167.864 220.931 167.65 220.931C167.437 220.931 167.274 220.768 167.274 220.555C167.274 220.342 167.437 220.179 167.65 220.179C167.864 220.179 168.027 220.342 168.027 220.555Z" fill="white"/>
<path d="M151.222 232.905C151.222 232.905 148.624 236.068 151.662 237.862C151.662 237.862 149.666 234.411 152.138 231.8L151.222 232.905Z" fill="#CB9C79"/>
<path d="M160.71 233.03C160.71 233.03 163.308 236.193 160.271 237.988C160.271 237.988 162.743 235.654 160.271 233.03H160.71Z" fill="#CB9C79"/>
<path d="M153.368 235.942C152.967 235.842 152.502 235.942 152.251 236.281C152.025 236.607 152.176 236.908 152.477 237.109C152.866 237.36 153.368 237.285 153.795 237.448C154.034 237.536 154.259 237.686 154.41 237.887C154.523 238.025 154.561 238.352 154.774 238.364C155.452 238.427 154.799 237.348 154.686 237.172C154.385 236.682 153.996 236.13 153.406 235.955C153.393 235.955 153.368 235.955 153.356 235.955L153.368 235.942Z" fill="#CB9C79"/>
<path d="M158.577 235.766C158.979 235.666 159.443 235.766 159.682 236.105C159.92 236.432 159.757 236.733 159.456 236.934C159.067 237.185 158.565 237.109 158.138 237.273C157.899 237.36 157.673 237.511 157.51 237.712C157.41 237.85 157.36 238.176 157.146 238.189C156.469 238.264 157.121 237.172 157.234 236.996C157.535 236.507 157.924 235.955 158.514 235.779C158.527 235.779 158.552 235.779 158.565 235.779L158.577 235.766Z" fill="#CB9C79"/>
<path d="M151.109 220.731C151.109 220.731 154.511 227.772 151.222 232.905C151.222 232.905 156.079 228.776 151.109 220.731Z" fill="#CB9C79"/>
<path d="M146.98 243.824H164.965C164.965 243.824 161.727 246.974 156.142 246.974C156.142 246.974 148.16 246.334 146.98 243.824Z" fill="#2E0000"/>
<path d="M146.98 243.824C146.98 243.824 150.67 241.1 155.966 242.556C155.966 242.556 158.564 241.138 164.952 243.811C164.952 243.811 157.861 244.652 146.967 243.811L146.98 243.824Z" fill="#CB9C79"/>
<path d="M146.98 243.824C146.98 243.824 148.95 249.07 156.832 249.07C156.832 249.07 162.204 248.982 164.965 243.811C164.965 243.811 162.944 245.958 156.782 246.146C156.782 246.146 151.85 246.296 146.993 243.824H146.98Z" fill="#CB9C79"/>
<path d="M148.109 243.924C148.109 243.924 157.911 244.615 164.965 243.811C164.965 243.811 161.162 245.807 156.619 245.694C156.619 245.694 151.297 245.782 148.122 243.924H148.109Z" fill="white"/>
<path d="M169.107 193.044C169.107 193.044 157.962 201.993 133.212 201.968L135.32 195.893L167.764 189.706L169.107 193.044Z" fill="#D1A480"/>
<path d="M174.629 198.654C174.629 198.654 182.937 208.118 180.616 224.195L183.891 222.4C183.891 222.4 187.882 210.954 186.163 201.955L174.629 198.654Z" fill="#FBB040"/>
<path d="M174.629 198.654C174.629 198.654 170.198 192.58 161.79 189.028L172.658 184.121C172.658 184.121 181.13 185.451 186.175 201.968L174.641 198.667L174.629 198.654Z" fill="#FBB040"/>
<path d="M126.259 199.332C125.468 208.456 128.694 222.563 128.694 222.563L130.953 223.53C128.619 207.452 137.781 196.019 137.781 196.019C137.781 196.019 140.077 192.454 146.014 190.484L136.776 182.226C136.776 182.226 127.2 188.325 126.247 199.32L126.259 199.332Z" fill="#FBB040"/>
<path d="M174.629 192.467L179.047 188.35C179.047 188.35 166.358 169.55 136.789 182.238L146.026 190.496C146.026 190.496 164.564 187.158 174.629 192.467Z" fill="#FBB040"/>
<path d="M152.151 189.706C152.151 189.706 166.044 172.951 175.959 200.499C175.959 200.499 172.696 192.341 152.151 189.706Z" fill="#C28931"/>
<path d="M151.109 186.581C151.109 186.581 160.008 176.565 171.567 186.581C171.567 186.581 178.306 192.843 179.423 200.035C179.423 200.035 177.716 184.66 165.04 180.883C165.04 180.883 155.916 178.297 149.44 185.526L151.109 186.568V186.581Z" fill="#FEBF40"/>
<path d="M152.151 189.706C152.151 189.706 146.541 197.362 131.053 212.422L128.744 200.085C128.744 200.085 144.068 184.259 152.151 189.693V189.706Z" fill="#FBB040"/>
<path d="M149.578 188.564C149.578 188.564 143.466 201.604 132.057 207.867C132.057 207.867 146.641 194.375 148.122 187.522L149.59 188.564H149.578Z" fill="#FEBF40"/>
<path d="M138.056 185.162C138.056 185.162 125.87 191.676 128.744 212.422C128.744 212.422 128.129 190.509 141.219 186.204L138.056 185.162Z" fill="#FEBF40"/>
<path d="M205.039 281.476L164.789 266.013H146.315L106.065 281.476C106.065 281.476 87.2265 293.474 87.8665 313.555H223.225C223.865 293.474 205.026 281.476 205.026 281.476H205.039Z" fill="#DCAD86"/>
<path d="M177.051 270.72L205.039 281.476C205.039 281.476 223.877 293.474 223.237 313.555H87.8665C87.2265 293.474 106.065 281.476 106.065 281.476L134.053 270.72L140.817 268.122H170.286L177.051 270.72Z" fill="white"/>
<path d="M87.854 363.318H110.571L114.148 311.685H87.854V363.318Z" fill="#262324"/>
<path d="M144.445 363.456H168.115L170.437 360.645L160.949 283.158L163.082 274.309C163.861 272.979 164.099 271.448 163.296 270.117C162.555 268.9 161.551 268.273 160.409 267.959C158.602 267.457 156.456 267.758 154.523 267.758C152.603 267.758 151.235 267.934 149.98 269.44C148.712 270.946 148.624 272.577 149.653 274.309L151.787 283.158C151.787 283.158 151.875 283.019 152.101 282.831C152 282.932 151.887 283.045 151.787 283.158L142.286 360.708L144.457 363.456H144.445Z" fill="#00B9C5"/>
<g style="mix-blend-mode:multiply">
<path d="M151.423 281.79C151.423 281.79 157.836 278.79 160.924 283.158C160.924 283.158 156.594 280.698 151.749 283.158L151.423 281.79Z" fill="#00B9C5"/>
</g>
<path d="M223.25 363.318H200.546L196.957 311.685H223.25V363.318Z" fill="#262324"/>
<path d="M196.917 314.021H222.984C223.622 293.853 204.838 281.803 204.838 281.803L176.931 271L158.259 363.987H150.913L134.069 271L106.162 281.803C106.162 281.803 87.3777 293.853 88.0159 314.021H114.221V364H196.791L196.917 314.021Z" fill="#262324"/>
<path d="M150.958 363.318L134.053 270.72L119.23 281.526L136.023 313.555L130.187 317.019L150.958 363.318Z" fill="#231F20"/>
<path d="M158.438 363.72L177.101 269.377L190.166 281.928L173.374 313.944L179.21 317.421L158.438 363.72Z" fill="#231F20"/>
<path d="M140.817 264.683L155.74 268.134L148.812 281.526L128.191 273.105L140.817 264.683Z" fill="#E6E7E8"/>
<path d="M169.81 264.683L155.364 268.134L162.292 281.526L182.348 272.766L169.81 264.683Z" fill="#E6E7E8"/>
<defs>
<linearGradient id="paint0_linear_1_10" x1="191.171" y1="121.318" x2="191.171" y2="402.953" gradientUnits="userSpaceOnUse">
<stop stop-color="#9A60E3"/>
<stop offset="1" stop-color="#6230A0"/>
</linearGradient>
</defs>
</svg>
