<svg width="36" height="26" viewBox="0 0 36 26" fill="none" xmlns="http://www.w3.org/2000/svg">
<path d="M34.4571 10.4H1.54286C0.123428 10.4 0 11.5622 0 13C0 14.4378 0.123428 15.6 1.54286 15.6H34.4571C35.8766 15.6 36 14.4378 36 13C36 11.5622 35.8766 10.4 34.4571 10.4ZM34.4571 20.8H1.54286C0.123428 20.8 0 21.9622 0 23.4C0 24.8378 0.123428 26 1.54286 26H34.4571C35.8766 26 36 24.8378 36 23.4C36 21.9622 35.8766 20.8 34.4571 20.8ZM1.54286 5.2H34.4571C35.8766 5.2 36 4.0378 36 2.6C36 1.1622 35.8766 0 34.4571 0H1.54286C0.123428 0 0 1.1622 0 2.6C0 4.0378 0.123428 5.2 1.54286 5.2Z" fill="#D6D2D2"/>
</svg>
